HIERARCHY
ROOT Hips
{
	OFFSET 0.00000 0.00000 0.00000
	CHANNELS 6 Xposition Yposition Zposition Zrotation Yrotation Xrotation 
	JOINT LHipJoint
	{
		OFFSET 0 0 0
		CHANNELS 3 Zrotation Yrotation Xrotation
		JOINT LeftHip
		{
			OFFSET 1.58895 -1.83665 0.71753
			CHANNELS 3 Zrotation Yrotation Xrotation
			JOINT LeftKnee
			{
				OFFSET 2.50528 -6.88321 0.00000
				CHANNELS 3 Zrotation Yrotation Xrotation
				JOINT LeftAnkle
				{
					OFFSET 2.63244 -7.23257 0.00000
					CHANNELS 3 Zrotation Yrotation Xrotation
					JOINT LeftToe
					{
						OFFSET 0.23691 -0.65090 1.72750
						CHANNELS 3 Zrotation Yrotation Xrotation
						End Site
						{
							OFFSET 0.00000 -0.00000 0.92561
						}
					}
				}
			}
		}
	}
	JOINT RHipJoint
	{
		OFFSET 0 0 0
		CHANNELS 3 Zrotation Yrotation Xrotation
		JOINT RightHip
		{
			OFFSET -1.51435 -1.83665 0.71753
			CHANNELS 3 Zrotation Yrotation Xrotation
			JOINT RightKnee
			{
				OFFSET -2.54551 -6.99375 0.00000
				CHANNELS 3 Zrotation Yrotation Xrotation
				JOINT RightAnkle
				{
					OFFSET -2.66027 -7.30903 0.00000
					CHANNELS 3 Zrotation Yrotation Xrotation
					JOINT RightToe
					{
						OFFSET -0.22981 -0.63138 2.03959
						CHANNELS 3 Zrotation Yrotation Xrotation
						End Site
						{
							OFFSET -0.00000 -0.00000 1.07060
						}
					}
				}
			}
		}
	}
	JOINT lowerback
	{
		OFFSET 0 0 0
		CHANNELS 3 Zrotation Yrotation Xrotation
		JOINT Chest
		{
			OFFSET -0.02651 1.86275 -0.11152
			CHANNELS 3 Zrotation Yrotation Xrotation
			JOINT Chest2
			{
				OFFSET 0.01019 1.86224 0.04087
				CHANNELS 3 Zrotation Yrotation Xrotation
				JOINT lowerneck
				{
					OFFSET 0 0 0
					CHANNELS 3 Zrotation Yrotation Xrotation
					JOINT Neck
					{
						OFFSET -0.01926 1.80512 0.08867
						CHANNELS 3 Zrotation Yrotation Xrotation
						JOINT Head
						{
							OFFSET 0.05516 1.76451 -0.38475
							CHANNELS 3 Zrotation Yrotation Xrotation
							End Site
							{
								OFFSET 0.01592 1.82587 -0.14001
							}
						}
					}
				}
				JOINT LeftCollar
				{
					OFFSET 0 0 0
					CHANNELS 3 Zrotation Yrotation Xrotation
					JOINT LeftShoulder
					{
						OFFSET 3.47116 1.51376 0.14491
CHANNELS 3 Zrotation Xrotation Yrotation
						JOINT LeftElbow
						{
OFFSET 0 -4.780950 0.000000
CHANNELS 3 Zrotation Xrotation Yrotation
							JOINT LeftWrist
							{
OFFSET 0 -3.586150 -0.000000
CHANNELS 3 Zrotation Xrotation Yrotation
								JOINT lhand
								{
									OFFSET 0 0 0
CHANNELS 3 Zrotation Xrotation Yrotation
									JOINT LFingers
									{
OFFSET 0 -0.659810 0.000000
CHANNELS 3 Zrotation Xrotation Yrotation
										End Site
										{
OFFSET 0 -0.531960 0.000000
										}
									}
								}
								JOINT LThumb
								{
OFFSET 0 0.000000 0.000000
CHANNELS 3 Zrotation Xrotation Yrotation
									End Site
									{
OFFSET 0 -0.540080 0.540080
									}
								}
							}
						}
					}
				}
				JOINT RightCollar
				{
					OFFSET 0 0 0
					CHANNELS 3 Zrotation Yrotation Xrotation
					JOINT RightShoulder
					{
						OFFSET -3.31725 1.61216 0.35156
CHANNELS 3 Zrotation Xrotation Yrotation
						JOINT RightElbow
						{
OFFSET 0 -4.489130 0.000000
CHANNELS 3 Zrotation Xrotation Yrotation
							JOINT RightWrist
							{
OFFSET 0 -3.705100 0.000000
CHANNELS 3 Zrotation Xrotation Yrotation
								JOINT rhand
								{
									OFFSET 0 0 0
CHANNELS 3 Zrotation Xrotation Yrotation
									JOINT RFingers
									{
OFFSET 0 -0.449140 0.000000
CHANNELS 3 Zrotation Xrotation Yrotation
										End Site
										{
OFFSET 0 -0.362110 0.000000
										}
									}
								}
								JOINT RThumb
								{
OFFSET 0 0.000000 0.000000
CHANNELS 3 Zrotation Xrotation Yrotation
									End Site
									{
OFFSET 0 -0.367630 0.367630
									}
								}
							}
						}
					}
				}
			}
		}
	}
}
MOTION
Frames: 13
Frame Time: 0.008333333333333333
-0.662965 18.739912 5.584923 -4.431476 7.304623 1.547706 0.000000 0.000000 0.000000 -9.261375 -10.543683 -7.089445 1.788597 8.411083 23.969824 1.189192 2.076704 -21.445417 8.814047 -16.686569 -55.444886 0.000000 0.000000 0.000000 0.000000 0.000000 0.000000 0.000000 0.000000 0.000000 0.000000 0.000000 0.000000 0.000000 0.000000 0.000000 0.804650 2.945720 10.821501 -1.214059 3.945319 -0.782252 -2.375693 1.878555 -6.753048 -9.915354 -9.933214 -6.257311 11.565255 -13.161834 3.365779 4.314051 -6.325354 3.452207 0.000000 0.000000 0.000000 5.855936 5.189926 -46.265410 54.450714 -54.640083 29.767598 8.280450 -13.481851 30.028375 0.000000 0.000000 0.000000 -7.125000 0.000000 0.000000 -13.113430 0.375937 -13.383161 0.000000 0.000000 0.000000 -47.884473 -43.723563 0.455853 -61.689980 -56.743670 -35.750815 -32.366427 9.456591 38.382288 0.000000 0.000000 0.000000 7.125000 0.000000 0.000000 4.139952 73.103879 -2.764707
-0.662512 18.740072 5.565483 -4.314298 7.214384 1.567659 0.000000 0.000000 0.000000 -9.364739 -10.365092 -7.241911 1.794307 8.423796 24.008876 1.177035 1.973004 -21.294110 8.771762 -16.658624 -55.297411 0.000000 0.000000 0.000000 0.000000 0.000000 0.000000 0.000000 0.000000 0.000000 0.000000 0.000000 0.000000 0.000000 0.000000 0.000000 0.824156 3.074935 11.052373 -0.931902 4.139003 -0.638351 -2.130269 1.978264 -6.742513 -10.630015 -9.990732 -6.436856 11.936786 -13.233569 3.871108 4.506696 -6.345080 3.715279 0.000000 0.000000 0.000000 5.611303 5.180855 -46.635244 54.795223 -54.755430 30.048710 8.419191 -13.837459 30.263407 0.000000 0.000000 0.000000 -7.125000 0.000000 0.000000 -13.045445 0.130154 -13.367203 0.000000 0.000000 0.000000 -44.611401 -41.386948 4.618329 -61.840773 -56.780773 -35.876990 -31.524185 8.868609 37.338467 0.000000 0.000000 0.000000 7.125000 0.000000 0.000000 4.368691 71.764280 -2.782491
-0.662300 18.739550 5.545379 -4.141398 7.171564 1.651583 0.000000 0.000000 0.000000 -9.508986 -10.149003 -7.495291 1.799603 8.435487 24.044842 1.161398 1.796139 -21.080726 8.761689 -16.651885 -55.262157 0.000000 0.000000 0.000000 0.000000 0.000000 0.000000 0.000000 0.000000 0.000000 0.000000 0.000000 0.000000 0.000000 0.000000 0.000000 0.891756 3.172409 11.198904 -0.749639 4.289706 -0.478650 -2.004028 2.054695 -6.659192 -10.182813 -10.042022 -6.578927 11.076624 -13.272151 4.044628 4.167123 -6.379770 3.701336 0.000000 0.000000 0.000000 5.497706 5.066911 -46.968546 55.039097 -54.836182 30.248004 8.365643 -13.858955 30.200877 0.000000 0.000000 0.000000 -7.125000 0.000000 0.000000 -13.072944 0.197661 -13.381255 0.000000 0.000000 0.000000 -41.834938 -39.020456 8.401902 -62.039052 -56.829276 -36.042868 -31.164060 7.812828 37.392794 0.000000 0.000000 0.000000 7.125000 0.000000 0.000000 4.982086 71.698411 -3.167937
-0.661995 18.741690 5.530595 -4.084506 7.175383 1.768929 0.000000 0.000000 0.000000 -9.535625 -10.121633 -7.726972 1.805745 8.449151 24.086911 1.151949 1.729263 -20.969109 8.749463 -16.643752 -55.219588 0.000000 0.000000 0.000000 0.000000 0.000000 0.000000 0.000000 0.000000 0.000000 0.000000 0.000000 0.000000 0.000000 0.000000 0.000000 1.110063 3.253520 11.257725 -0.551505 4.439295 -0.336970 -1.940092 2.126649 -6.535950 -10.166985 -10.093406 -6.717873 10.607868 -13.309656 4.293027 4.008696 -6.407216 3.766792 0.000000 0.000000 0.000000 5.420542 4.978084 -47.359494 55.099048 -54.855859 30.296988 8.205818 -13.772817 29.990863 0.000000 0.000000 0.000000 -7.125000 0.000000 0.000000 -13.154364 0.421314 -13.416571 0.000000 0.000000 0.000000 -39.869495 -36.961263 11.586756 -61.693377 -56.744311 -35.753710 -31.094824 7.340180 37.415132 0.000000 0.000000 0.000000 7.125000 0.000000 0.000000 5.111436 71.697723 -3.250292
-0.661541 18.742522 5.520030 -4.084807 7.278821 1.793863 0.000000 0.000000 0.000000 -9.519785 -10.192651 -7.825161 1.812426 8.463977 24.132495 1.147037 1.705373 -20.915092 8.740989 -16.638093 -55.189982 0.000000 0.000000 0.000000 0.000000 0.000000 0.000000 0.000000 0.000000 0.000000 0.000000 0.000000 0.000000 0.000000 0.000000 0.000000 1.510348 3.306314 11.245366 -0.460121 4.565567 -0.091738 -2.075616 2.184176 -6.240765 -10.341493 -10.185264 -6.717110 10.600472 -13.420219 4.345802 4.020710 -6.464261 3.804941 0.000000 0.000000 0.000000 5.537094 4.751371 -47.752884 55.068163 -54.845699 30.271715 7.657805 -13.527730 29.948801 0.000000 0.000000 0.000000 -7.125000 0.000000 0.000000 -13.465535 0.526508 -13.726939 0.000000 0.000000 0.000000 -37.659838 -35.285434 13.954130 -60.596055 -56.463295 -34.838221 -30.657367 6.812584 37.326564 0.000000 0.000000 0.000000 7.125000 0.000000 0.000000 5.687934 71.462457 -3.587545
-0.661853 18.743685 5.509074 -4.147618 7.465386 1.812461 0.000000 0.000000 0.000000 -9.436745 -10.309438 -7.930642 1.817550 8.475321 24.167299 1.138209 1.702664 -20.836724 8.750281 -16.644382 -55.222572 0.000000 0.000000 0.000000 0.000000 0.000000 0.000000 0.000000 0.000000 0.000000 0.000000 0.000000 0.000000 0.000000 0.000000 0.000000 1.802324 3.325251 11.485513 -0.261171 4.645467 -0.044809 -2.057491 2.215567 -6.316574 -10.640104 -10.233230 -6.481653 10.616399 -13.483322 4.396697 4.074181 -6.506570 3.809423 0.000000 0.000000 0.000000 5.455635 4.905163 -47.974939 55.102187 -54.856882 30.299560 7.352053 -13.324326 29.812899 0.000000 0.000000 0.000000 -7.125000 0.000000 0.000000 -13.634696 0.693874 -13.868650 0.000000 0.000000 0.000000 -36.711598 -33.881162 16.542198 -58.896666 -56.008643 -33.424688 -30.665970 5.598077 37.647819 0.000000 0.000000 0.000000 7.125000 0.000000 0.000000 6.011355 71.787940 -3.835567
-0.665038 18.746389 5.499733 -4.233261 7.739474 1.932733 0.000000 0.000000 0.000000 -9.298709 -10.525783 -8.146561 1.821739 8.484358 24.195353 1.136390 1.637415 -20.792362 8.766460 -16.655050 -55.278889 0.000000 0.000000 0.000000 0.000000 0.000000 0.000000 0.000000 0.000000 0.000000 0.000000 0.000000 0.000000 0.000000 0.000000 0.000000 1.945700 3.317650 11.711096 0.031743 4.679668 -0.095493 -1.854289 2.227505 -6.509528 -10.580081 -10.232823 -6.364411 9.910601 -13.442427 4.455783 3.862538 -6.513711 3.747278 0.000000 0.000000 0.000000 5.103310 5.142715 -48.037646 55.049481 -54.839567 30.256402 7.598460 -13.510004 29.851168 0.000000 0.000000 0.000000 -7.125000 0.000000 0.000000 -13.495386 0.628373 -13.734448 0.000000 0.000000 0.000000 -34.771026 -31.698058 18.760868 -58.190637 -55.807898 -32.840056 -30.122421 5.559467 37.562124 0.000000 0.000000 0.000000 7.125000 0.000000 0.000000 6.741473 71.520011 -4.262467
-0.669749 18.748742 5.493540 -4.246250 8.039411 2.073780 0.000000 0.000000 0.000000 -9.223774 -10.742805 -8.360308 1.823800 8.488969 24.209438 1.128126 1.522952 -20.670090 8.745612 -16.641251 -55.206272 0.000000 0.000000 0.000000 0.000000 0.000000 0.000000 0.000000 0.000000 0.000000 0.000000 0.000000 0.000000 0.000000 0.000000 0.000000 2.109451 3.328493 11.772668 0.187020 4.727715 -0.060465 -1.793433 2.248383 -6.505427 -10.641377 -10.248938 -6.315519 9.601699 -13.434408 4.425635 3.783139 -6.523382 3.710449 0.000000 0.000000 0.000000 4.972129 5.214753 -48.150758 55.053241 -54.840817 30.259564 7.400499 -13.456424 29.906251 0.000000 0.000000 0.000000 -7.125000 0.000000 0.000000 -13.610687 0.597581 -13.866375 0.000000 0.000000 0.000000 -32.609848 -29.954806 20.182868 -57.683409 -55.660322 -32.420765 -29.018472 5.845768 38.177362 0.000000 0.000000 0.000000 7.125000 0.000000 0.000000 9.093234 71.757128 -5.809616
-0.672087 18.748903 5.492001 -4.191077 8.356104 2.150788 0.000000 0.000000 0.000000 -9.247960 -10.829339 -8.521165 1.822313 8.485629 24.199188 1.108898 1.426461 -20.458670 8.796011 -16.674642 -55.382043 0.000000 0.000000 0.000000 0.000000 0.000000 0.000000 0.000000 0.000000 0.000000 0.000000 0.000000 0.000000 0.000000 0.000000 0.000000 2.165253 3.353616 11.867968 0.320605 4.779079 -0.014110 -1.697864 2.273838 -6.514887 -10.662735 -10.252770 -6.261741 9.333522 -13.417074 4.382464 3.711560 -6.526267 3.668530 0.000000 0.000000 0.000000 4.859228 5.278621 -48.329819 54.997582 -54.822428 30.213968 7.406321 -13.565111 30.038296 0.000000 0.000000 0.000000 -7.125000 0.000000 0.000000 -13.612737 0.468607 -13.900090 0.000000 0.000000 0.000000 -31.047513 -28.221587 21.328061 -57.191242 -55.513768 -32.014678 -28.005633 5.763478 39.262285 0.000000 0.000000 0.000000 7.125000 0.000000 0.000000 11.963504 72.466972 -7.835484
-0.677313 18.751220 5.491190 -4.109226 8.615642 2.239763 0.000000 0.000000 0.000000 -9.283546 -10.861337 -8.677087 1.819152 8.478722 24.177865 1.097155 1.283122 -20.293685 8.827651 -16.695558 -55.492137 0.000000 0.000000 0.000000 0.000000 0.000000 0.000000 0.000000 0.000000 0.000000 0.000000 0.000000 0.000000 0.000000 0.000000 0.000000 2.125330 3.385036 11.967376 0.430819 4.824845 0.010755 -1.573775 2.298320 -6.555726 -10.681672 -10.351204 -6.229091 9.009786 -13.519644 4.306133 3.612227 -6.589638 3.627362 0.000000 0.000000 0.000000 4.751311 5.340163 -48.412599 55.033080 -54.834185 30.243057 7.580821 -13.684858 29.986001 0.000000 0.000000 0.000000 -7.125000 0.000000 0.000000 -13.511085 0.499300 -13.782704 0.000000 0.000000 0.000000 -30.546021 -27.177433 22.584492 -54.693423 -54.719032 -29.966146 -27.255120 4.827641 40.007622 0.000000 0.000000 0.000000 7.125000 0.000000 0.000000 14.142454 72.912999 -9.417760
-0.679854 18.751872 5.492096 -4.071767 8.863637 2.365033 0.000000 0.000000 0.000000 -9.262970 -10.867907 -8.890868 1.817014 8.474055 24.163423 1.085388 1.100422 -20.112711 8.846599 -16.707995 -55.558169 0.000000 0.000000 0.000000 0.000000 0.000000 0.000000 0.000000 0.000000 0.000000 0.000000 0.000000 0.000000 0.000000 0.000000 0.000000 2.174466 3.360534 11.972640 0.498613 4.803661 0.023842 -1.526415 2.287769 -6.547541 -10.754138 -10.335003 -6.251688 8.827830 -13.470990 4.256475 3.573093 -6.572593 3.602633 0.000000 0.000000 0.000000 4.672079 5.358243 -48.326635 54.920675 -54.797092 30.151158 7.580007 -13.646113 30.157599 0.000000 0.000000 0.000000 -7.125000 0.000000 0.000000 -13.518715 0.332603 -13.831429 0.000000 0.000000 0.000000 -29.702984 -26.062555 23.635493 -53.252377 -54.225007 -28.792958 -26.511767 4.005811 41.250410 0.000000 0.000000 0.000000 7.125000 0.000000 0.000000 17.266866 73.797593 -11.861709
-0.682860 18.751986 5.496297 -4.047350 9.101882 2.452157 0.000000 0.000000 0.000000 -9.238945 -10.879255 -9.062068 1.819346 8.479163 24.179169 1.072884 0.948109 -19.938280 8.869603 -16.723111 -55.638080 0.000000 0.000000 0.000000 0.000000 0.000000 0.000000 0.000000 0.000000 0.000000 0.000000 0.000000 0.000000 0.000000 0.000000 0.000000 2.247011 3.374966 11.976941 0.517997 4.834474 0.016668 -1.552143 2.300695 -6.552120 -10.740378 -10.381331 -6.173037 8.710575 -13.525180 4.122454 3.538777 -6.605693 3.544909 0.000000 0.000000 0.000000 4.637106 5.428804 -48.331547 54.881068 -54.783920 30.118812 7.537915 -13.493184 30.176604 0.000000 0.000000 0.000000 -7.125000 0.000000 0.000000 -13.543546 0.319140 -13.861567 0.000000 0.000000 0.000000 -28.781894 -24.824983 24.265745 -52.267736 -53.870004 -27.995646 -24.949619 3.165603 43.270690 0.000000 0.000000 0.000000 7.125000 0.000000 0.000000 23.484858 75.003446 -16.823148
-0.683761 18.753418 5.505474 -4.101357 9.236133 2.465379 0.000000 0.000000 0.000000 -9.165901 -10.938953 -9.087493 1.821618 8.484294 24.195013 1.072946 0.914937 -19.925392 8.883245 -16.731963 -55.685471 0.000000 0.000000 0.000000 0.000000 0.000000 0.000000 0.000000 0.000000 0.000000 0.000000 0.000000 0.000000 0.000000 0.000000 0.000000 2.330617 3.388913 11.972217 0.557923 4.867187 0.020849 -1.561843 2.314959 -6.540627 -10.642695 -10.450363 -6.080956 8.538508 -13.610710 3.917413 3.476157 -6.655010 3.456737 0.000000 0.000000 0.000000 4.631481 5.509354 -48.364214 54.917899 -54.796123 30.148897 7.611978 -13.553997 30.140546 0.000000 0.000000 0.000000 -7.125000 0.000000 0.000000 -13.499860 0.345574 -13.807765 0.000000 0.000000 0.000000 -27.812439 -23.638751 24.686457 -51.511603 -53.586116 -27.386279 -23.055562 2.227165 45.331289 0.000000 0.000000 0.000000 7.125000 0.000000 0.000000 31.133779 75.938305 -23.107738
